<svg width="75" height="45" viewBox="0 0 75 45" fill="none" xmlns="http://www.w3.org/2000/svg">
<path d="M38.3684 16.0526C44.647 16.0526 49.7368 14.9216 49.7368 13.5263C49.7368 12.1311 44.647 11 38.3684 11C32.0898 11 27 12.1311 27 13.5263C27 14.9216 32.0898 16.0526 38.3684 16.0526Z" fill="white" stroke="#F72D57" stroke-width="2" stroke-linecap="round" stroke-linejoin="round"/>
<path d="M27 13.5263C27 16.3431 31.8897 21.9566 34.397 24.6484C35.3168 25.6234 35.8331 26.9106 35.8421 28.2509V35L40.8947 32.4737V28.2509C40.8947 26.9107 41.4265 25.6299 42.3398 24.6484C44.8484 21.9566 49.7368 16.3444 49.7368 13.5263" fill="white"/>
<path d="M27 13.5263C27 16.3431 31.8897 21.9566 34.397 24.6484C35.3168 25.6234 35.8331 26.9106 35.8421 28.2509V35L40.8947 32.4737V28.2509C40.8947 26.9107 41.4265 25.6299 42.3398 24.6484C44.8484 21.9566 49.7368 16.3444 49.7368 13.5263" stroke="#F72D57" stroke-width="2" stroke-linecap="round" stroke-linejoin="round"/>
<rect x="1" y="1" width="73" height="43" rx="21.5" stroke="#F72D57" stroke-width="2"/>
</svg>
