<svg width="26" height="37" viewBox="0 0 26 37" fill="none" xmlns="http://www.w3.org/2000/svg">
<path d="M0 37L4.5 0H22L26 37L13 32.5L0 37Z" fill="#F2BC57"/>
<path d="M14.6066 19.69H11.2566V21.68C11.3966 21.4933 11.6033 21.3367 11.8766 21.21C12.1566 21.0833 12.4533 21.02 12.7666 21.02C13.3266 21.02 13.78 21.14 14.1266 21.38C14.48 21.62 14.73 21.9233 14.8766 22.29C15.03 22.6567 15.1066 23.0433 15.1066 23.45C15.1066 23.9433 15.01 24.3833 14.8166 24.77C14.63 25.15 14.3466 25.45 13.9666 25.67C13.5933 25.89 13.1333 26 12.5866 26C11.86 26 11.2766 25.82 10.8366 25.46C10.3966 25.1 10.1333 24.6233 10.0466 24.03H11.1566C11.23 24.3433 11.3933 24.5933 11.6466 24.78C11.9 24.96 12.2166 25.05 12.5966 25.05C13.07 25.05 13.4233 24.9067 13.6566 24.62C13.8966 24.3333 14.0166 23.9533 14.0166 23.48C14.0166 23 13.8966 22.6333 13.6566 22.38C13.4166 22.12 13.0633 21.99 12.5966 21.99C12.27 21.99 11.9933 22.0733 11.7666 22.24C11.5466 22.4 11.3866 22.62 11.2866 22.9H10.2066V18.69H14.6066V19.69Z" fill="#3F3F3F"/>
</svg>
