<svg width="358" height="47" viewBox="0 0 358 47" fill="none" xmlns="http://www.w3.org/2000/svg">
<path fill-rule="evenodd" clip-rule="evenodd" d="M330.19 26.8332L336.646 33.0201C336.873 33.2377 337 33.5328 337 33.8404C337 34.1481 336.872 34.4431 336.645 34.6605C336.418 34.878 336.11 35.0001 335.789 35C335.468 34.9999 335.16 34.8776 334.933 34.66L328.478 28.4731C326.548 29.9056 324.121 30.5797 321.691 30.3583C319.261 30.1369 317.01 29.0366 315.397 27.2813C313.783 25.5259 312.928 23.2474 313.005 20.9092C313.082 18.571 314.086 16.3488 315.812 14.6946C317.538 13.0404 319.857 12.0785 322.296 12.0046C324.736 11.9307 327.114 12.7503 328.945 14.2968C330.777 15.8432 331.925 18.0002 332.156 20.3291C332.387 22.658 331.684 24.9837 330.189 26.8332H330.19ZM322.6 28.0994C324.51 28.0994 326.341 27.3724 327.691 26.0784C329.042 24.7845 329.8 23.0295 329.8 21.1995C329.8 19.3696 329.042 17.6145 327.691 16.3206C326.341 15.0266 324.51 14.2997 322.6 14.2997C320.691 14.2997 318.86 15.0266 317.51 16.3206C316.159 17.6145 315.401 19.3696 315.401 21.1995C315.401 23.0295 316.159 24.7845 317.51 26.0784C318.86 27.3724 320.691 28.0994 322.6 28.0994Z" fill="#F72D57"/>
<rect x="1" y="1.79596" width="356" height="43.4081" rx="21.704" stroke="#F72D57" stroke-width="2"/>
<path d="M26.6352 29.112C25.8992 29.112 25.2379 28.984 24.6512 28.728C24.0752 28.4613 23.6219 28.0987 23.2912 27.64C22.9605 27.1707 22.7899 26.632 22.7792 26.024H24.3312C24.3845 26.5467 24.5979 26.9893 24.9712 27.352C25.3552 27.704 25.9099 27.88 26.6352 27.88C27.3285 27.88 27.8725 27.7093 28.2672 27.368C28.6725 27.016 28.8752 26.568 28.8752 26.024C28.8752 25.5973 28.7579 25.2507 28.5232 24.984C28.2885 24.7173 27.9952 24.5147 27.6432 24.376C27.2912 24.2373 26.8165 24.088 26.2192 23.928C25.4832 23.736 24.8912 23.544 24.4432 23.352C24.0059 23.16 23.6272 22.8613 23.3072 22.456C22.9979 22.04 22.8432 21.4853 22.8432 20.792C22.8432 20.184 22.9979 19.6453 23.3072 19.176C23.6165 18.7067 24.0485 18.344 24.6032 18.088C25.1685 17.832 25.8139 17.704 26.5392 17.704C27.5845 17.704 28.4379 17.9653 29.0992 18.488C29.7712 19.0107 30.1499 19.704 30.2352 20.568H28.6352C28.5819 20.1413 28.3579 19.768 27.9632 19.448C27.5685 19.1173 27.0459 18.952 26.3952 18.952C25.7872 18.952 25.2912 19.112 24.9072 19.432C24.5232 19.7413 24.3312 20.1787 24.3312 20.744C24.3312 21.1493 24.4432 21.48 24.6672 21.736C24.9019 21.992 25.1845 22.1893 25.5152 22.328C25.8565 22.456 26.3312 22.6053 26.9392 22.776C27.6752 22.9787 28.2672 23.1813 28.7152 23.384C29.1632 23.576 29.5472 23.88 29.8672 24.296C30.1872 24.7013 30.3472 25.256 30.3472 25.96C30.3472 26.504 30.2032 27.016 29.9152 27.496C29.6272 27.976 29.2005 28.3653 28.6352 28.664C28.0699 28.9627 27.4032 29.112 26.6352 29.112ZM40.4898 24.28C40.4898 24.5573 40.4738 24.8507 40.4418 25.16H33.4338C33.4871 26.024 33.7805 26.7013 34.3138 27.192C34.8578 27.672 35.5138 27.912 36.2818 27.912C36.9111 27.912 37.4338 27.768 37.8498 27.48C38.2765 27.1813 38.5751 26.7867 38.7458 26.296H40.3138C40.0791 27.1387 39.6098 27.8267 38.9058 28.36C38.2018 28.8827 37.3271 29.144 36.2818 29.144C35.4498 29.144 34.7031 28.9573 34.0418 28.584C33.3911 28.2107 32.8791 27.6827 32.5058 27C32.1325 26.3067 31.9458 25.5067 31.9458 24.6C31.9458 23.6933 32.1271 22.8987 32.4898 22.216C32.8525 21.5333 33.3591 21.0107 34.0098 20.648C34.6711 20.2747 35.4285 20.088 36.2818 20.088C37.1138 20.088 37.8498 20.2693 38.4898 20.632C39.1298 20.9947 39.6205 21.496 39.9618 22.136C40.3138 22.7653 40.4898 23.48 40.4898 24.28ZM38.9858 23.976C38.9858 23.4213 38.8631 22.9467 38.6178 22.552C38.3725 22.1467 38.0365 21.8427 37.6098 21.64C37.1938 21.4267 36.7298 21.32 36.2178 21.32C35.4818 21.32 34.8525 21.5547 34.3298 22.024C33.8178 22.4933 33.5245 23.144 33.4498 23.976H38.9858ZM41.8677 24.584C41.8677 23.688 42.049 22.904 42.4117 22.232C42.7744 21.5493 43.2704 21.0213 43.8997 20.648C44.5397 20.2747 45.249 20.088 46.0277 20.088C46.7957 20.088 47.4624 20.2533 48.0277 20.584C48.593 20.9147 49.0144 21.3307 49.2917 21.832V20.232H50.7637V29H49.2917V27.368C49.0037 27.88 48.5717 28.3067 47.9957 28.648C47.4304 28.9787 46.769 29.144 46.0117 29.144C45.233 29.144 44.529 28.952 43.8997 28.568C43.2704 28.184 42.7744 27.6453 42.4117 26.952C42.049 26.2587 41.8677 25.4693 41.8677 24.584ZM49.2917 24.6C49.2917 23.9387 49.1584 23.3627 48.8917 22.872C48.625 22.3813 48.2624 22.008 47.8037 21.752C47.3557 21.4853 46.8597 21.352 46.3157 21.352C45.7717 21.352 45.2757 21.48 44.8277 21.736C44.3797 21.992 44.0224 22.3653 43.7557 22.856C43.489 23.3467 43.3557 23.9227 43.3557 24.584C43.3557 25.256 43.489 25.8427 43.7557 26.344C44.0224 26.8347 44.3797 27.2133 44.8277 27.48C45.2757 27.736 45.7717 27.864 46.3157 27.864C46.8597 27.864 47.3557 27.736 47.8037 27.48C48.2624 27.2133 48.625 26.8347 48.8917 26.344C49.1584 25.8427 49.2917 25.2613 49.2917 24.6ZM54.6802 21.656C54.9362 21.1547 55.2989 20.7653 55.7682 20.488C56.2482 20.2107 56.8295 20.072 57.5122 20.072V21.576H57.1282C55.4962 21.576 54.6802 22.4613 54.6802 24.232V29H53.2242V20.232H54.6802V21.656ZM58.6489 24.6C58.6489 23.6933 58.8303 22.904 59.1929 22.232C59.5556 21.5493 60.0569 21.0213 60.6969 20.648C61.3476 20.2747 62.0889 20.088 62.9209 20.088C63.9983 20.088 64.8836 20.3493 65.5769 20.872C66.2809 21.3947 66.7449 22.12 66.9689 23.048H65.4009C65.2516 22.5147 64.9583 22.0933 64.5209 21.784C64.0943 21.4747 63.5609 21.32 62.9209 21.32C62.0889 21.32 61.4169 21.608 60.9049 22.184C60.3929 22.7493 60.1369 23.5547 60.1369 24.6C60.1369 25.656 60.3929 26.472 60.9049 27.048C61.4169 27.624 62.0889 27.912 62.9209 27.912C63.5609 27.912 64.0943 27.7627 64.5209 27.464C64.9476 27.1653 65.2409 26.7387 65.4009 26.184H66.9689C66.7343 27.08 66.2649 27.8 65.5609 28.344C64.8569 28.8773 63.9769 29.144 62.9209 29.144C62.0889 29.144 61.3476 28.9573 60.6969 28.584C60.0569 28.2107 59.5556 27.6827 59.1929 27C58.8303 26.3173 58.6489 25.5173 58.6489 24.6ZM73.2637 20.072C73.925 20.072 74.5224 20.216 75.0557 20.504C75.589 20.7813 76.005 21.2027 76.3037 21.768C76.613 22.3333 76.7677 23.0213 76.7677 23.832V29H75.3277V24.04C75.3277 23.1653 75.109 22.4987 74.6717 22.04C74.2344 21.5707 73.637 21.336 72.8797 21.336C72.1117 21.336 71.4984 21.576 71.0397 22.056C70.5917 22.536 70.3677 23.2347 70.3677 24.152V29H68.9117V17.16H70.3677V21.48C70.6557 21.032 71.0504 20.6853 71.5517 20.44C72.0637 20.1947 72.6344 20.072 73.2637 20.072ZM82.8677 24.584C82.8677 23.688 83.049 22.904 83.4117 22.232C83.7744 21.5493 84.2704 21.0213 84.8997 20.648C85.5397 20.2747 86.249 20.088 87.0277 20.088C87.7957 20.088 88.4624 20.2533 89.0277 20.584C89.593 20.9147 90.0144 21.3307 90.2917 21.832V20.232H91.7637V29H90.2917V27.368C90.0037 27.88 89.5717 28.3067 88.9957 28.648C88.4304 28.9787 87.769 29.144 87.0117 29.144C86.233 29.144 85.529 28.952 84.8997 28.568C84.2704 28.184 83.7744 27.6453 83.4117 26.952C83.049 26.2587 82.8677 25.4693 82.8677 24.584ZM90.2917 24.6C90.2917 23.9387 90.1584 23.3627 89.8917 22.872C89.625 22.3813 89.2624 22.008 88.8037 21.752C88.3557 21.4853 87.8597 21.352 87.3157 21.352C86.7717 21.352 86.2757 21.48 85.8277 21.736C85.3797 21.992 85.0224 22.3653 84.7557 22.856C84.489 23.3467 84.3557 23.9227 84.3557 24.584C84.3557 25.256 84.489 25.8427 84.7557 26.344C85.0224 26.8347 85.3797 27.2133 85.8277 27.48C86.2757 27.736 86.7717 27.864 87.3157 27.864C87.8597 27.864 88.3557 27.736 88.8037 27.48C89.2624 27.2133 89.625 26.8347 89.8917 26.344C90.1584 25.8427 90.2917 25.2613 90.2917 24.6ZM104.074 23.256C104.479 23.32 104.847 23.4853 105.178 23.752C105.519 24.0187 105.786 24.3493 105.978 24.744C106.18 25.1387 106.282 25.56 106.282 26.008C106.282 26.5733 106.138 27.0853 105.85 27.544C105.562 27.992 105.14 28.3493 104.586 28.616C104.042 28.872 103.396 29 102.65 29H98.4898V17.848H102.49C103.247 17.848 103.892 17.976 104.426 18.232C104.959 18.4773 105.359 18.8133 105.626 19.24C105.892 19.6667 106.026 20.1467 106.026 20.68C106.026 21.3413 105.844 21.8907 105.482 22.328C105.13 22.7547 104.66 23.064 104.074 23.256ZM99.9458 22.664H102.394C103.076 22.664 103.604 22.504 103.978 22.184C104.351 21.864 104.538 21.4213 104.538 20.856C104.538 20.2907 104.351 19.848 103.978 19.528C103.604 19.208 103.066 19.048 102.362 19.048H99.9458V22.664ZM102.522 27.8C103.247 27.8 103.812 27.6293 104.218 27.288C104.623 26.9467 104.826 26.472 104.826 25.864C104.826 25.2453 104.612 24.76 104.186 24.408C103.759 24.0453 103.188 23.864 102.474 23.864H99.9458V27.8H102.522ZM109.758 17.16V29H108.302V17.16H109.758ZM116.064 29.144C115.242 29.144 114.496 28.9573 113.824 28.584C113.162 28.2107 112.64 27.6827 112.256 27C111.882 26.3067 111.696 25.5067 111.696 24.6C111.696 23.704 111.888 22.9147 112.272 22.232C112.666 21.5387 113.2 21.0107 113.872 20.648C114.544 20.2747 115.296 20.088 116.128 20.088C116.96 20.088 117.712 20.2747 118.384 20.648C119.056 21.0107 119.584 21.5333 119.968 22.216C120.362 22.8987 120.56 23.6933 120.56 24.6C120.56 25.5067 120.357 26.3067 119.952 27C119.557 27.6827 119.018 28.2107 118.336 28.584C117.653 28.9573 116.896 29.144 116.064 29.144ZM116.064 27.864C116.586 27.864 117.077 27.7413 117.536 27.496C117.994 27.2507 118.362 26.8827 118.64 26.392C118.928 25.9013 119.072 25.304 119.072 24.6C119.072 23.896 118.933 23.2987 118.656 22.808C118.378 22.3173 118.016 21.9547 117.568 21.72C117.12 21.4747 116.634 21.352 116.112 21.352C115.578 21.352 115.088 21.4747 114.64 21.72C114.202 21.9547 113.85 22.3173 113.584 22.808C113.317 23.2987 113.184 23.896 113.184 24.6C113.184 25.3147 113.312 25.9173 113.568 26.408C113.834 26.8987 114.186 27.2667 114.624 27.512C115.061 27.7467 115.541 27.864 116.064 27.864ZM126.09 20.088C126.848 20.088 127.509 20.2533 128.074 20.584C128.65 20.9147 129.077 21.3307 129.354 21.832V20.232H130.826V29.192C130.826 29.992 130.656 30.7013 130.314 31.32C129.973 31.9493 129.482 32.44 128.842 32.792C128.213 33.144 127.477 33.32 126.634 33.32C125.482 33.32 124.522 33.048 123.754 32.504C122.986 31.96 122.533 31.2187 122.394 30.28H123.834C123.994 30.8133 124.325 31.24 124.826 31.56C125.328 31.8907 125.93 32.056 126.634 32.056C127.434 32.056 128.085 31.8053 128.586 31.304C129.098 30.8027 129.354 30.0987 129.354 29.192V27.352C129.066 27.864 128.64 28.2907 128.074 28.632C127.509 28.9733 126.848 29.144 126.09 29.144C125.312 29.144 124.602 28.952 123.962 28.568C123.333 28.184 122.837 27.6453 122.474 26.952C122.112 26.2587 121.93 25.4693 121.93 24.584C121.93 23.688 122.112 22.904 122.474 22.232C122.837 21.5493 123.333 21.0213 123.962 20.648C124.602 20.2747 125.312 20.088 126.09 20.088ZM129.354 24.6C129.354 23.9387 129.221 23.3627 128.954 22.872C128.688 22.3813 128.325 22.008 127.866 21.752C127.418 21.4853 126.922 21.352 126.378 21.352C125.834 21.352 125.338 21.48 124.89 21.736C124.442 21.992 124.085 22.3653 123.818 22.856C123.552 23.3467 123.418 23.9227 123.418 24.584C123.418 25.256 123.552 25.8427 123.818 26.344C124.085 26.8347 124.442 27.2133 124.89 27.48C125.338 27.736 125.834 27.864 126.378 27.864C126.922 27.864 127.418 27.736 127.866 27.48C128.325 27.2133 128.688 26.8347 128.954 26.344C129.221 25.8427 129.354 25.2613 129.354 24.6ZM133.751 29.096C133.473 29.096 133.239 29 133.047 28.808C132.855 28.616 132.759 28.3813 132.759 28.104C132.759 27.8267 132.855 27.592 133.047 27.4C133.239 27.208 133.473 27.112 133.751 27.112C134.017 27.112 134.241 27.208 134.423 27.4C134.615 27.592 134.711 27.8267 134.711 28.104C134.711 28.3813 134.615 28.616 134.423 28.808C134.241 29 134.017 29.096 133.751 29.096ZM137.11 29.096C136.833 29.096 136.598 29 136.406 28.808C136.214 28.616 136.118 28.3813 136.118 28.104C136.118 27.8267 136.214 27.592 136.406 27.4C136.598 27.208 136.833 27.112 137.11 27.112C137.377 27.112 137.601 27.208 137.782 27.4C137.974 27.592 138.07 27.8267 138.07 28.104C138.07 28.3813 137.974 28.616 137.782 28.808C137.601 29 137.377 29.096 137.11 29.096ZM140.469 29.096C140.192 29.096 139.957 29 139.765 28.808C139.573 28.616 139.477 28.3813 139.477 28.104C139.477 27.8267 139.573 27.592 139.765 27.4C139.957 27.208 140.192 27.112 140.469 27.112C140.736 27.112 140.96 27.208 141.141 27.4C141.333 27.592 141.429 27.8267 141.429 28.104C141.429 28.3813 141.333 28.616 141.141 28.808C140.96 29 140.736 29.096 140.469 29.096Z" fill="#3F3F3F"/>
</svg>
